<?xml version="1.0" ?><!DOCTYPE svg  PUBLIC '-//W3C//DTD SVG 1.1//EN'  'http://www.w3.org/Graphics/SVG/1.1/DTD/svg11.dtd'><svg enable-background="new 0 0 512 512" id="Layer_1" version="1.1" viewBox="0 0 512 512" xml:space="preserve" xmlns="http://www.w3.org/2000/svg" xmlns:xlink="http://www.w3.org/1999/xlink"><g><path d="M504.2,257.5c-4.7,100.2-48.8,176.8-138.7,224c-90.4,47.4-204.6,30.1-279.2-40.3   c-44.4-41.9-71.1-93.3-77.9-153.9c-8.7-77,13.1-145,65.8-202.1c40-43.4,89.9-69.4,148.5-76.7c76.6-9.5,144,12.1,200.8,64.4   c44.9,41.4,70.3,93.3,78.3,153.8c0.5,3.8,0.9,7.6,1,11.4c0.2,6.3,0,12.6,0,19C503.3,257.2,503.8,257.3,504.2,257.5z M254.5,488.2   c124.5,0.5,228.1-100.8,229.4-228.6c1.4-130.2-102.7-232.7-226.7-233.8C131.4,24.6,26.9,126.6,26.2,254.7   C25.4,384.3,127.6,488.2,254.5,488.2z" fill="#39485F"/><path d="M344.6,351.8c0.9,1.5,0.4,3.1,0.4,4.7c0,13.5-0.1,27,0.1,40.5c0.1,3.6-0.9,5.4-4.3,7.2   c-21.2,10.8-43.6,16-67.5,14.8c-27-1.4-49.8-10.9-65.2-34.4c-6.6-10.1-7.9-21.4-7.9-33c-0.2-39-0.4-78-0.4-117c0-5-1.4-6.2-6.2-6   c-7.3,0.4-14.7,0-22,0.2c-2.9,0.1-3.7-0.8-3.7-3.7c0.1-13.5,0.1-27,0-40.5c0-1.7,0.2-2.9,2.3-3.7c25.2-10.5,41.5-29,49.8-54.9   c2.8-8.6,4.4-17.4,5.7-26.3c0.5-3.2,1.7-4.4,4.7-4.3c11.2,0.1,22.3,0.2,33.5,0.1c3.9,0,3.5,2.5,3.5,5c0.1,24,0.3,48,0.2,72   c0,3.9,1,5,4.9,4.9c19.5-0.2,39,0,58.5-0.2c3.7,0,5.3,0.7,5.2,4.9c-0.3,14-0.2,28,0,42c0.1,3.7-1,4.8-4.8,4.8   c-19.7-0.2-39.3,0-59-0.2c-4.1,0-4.9,1.2-4.8,5.1c0.2,30.2,0.3,60.3,0.4,90.5c0,4.5,0.6,9,0.5,13.5c-0.1,19.4,16.2,27.7,30,28.3   c15.2,0.7,28.9-3.6,41.5-11.9c1.2-0.8,2.5-1.6,3.8-2.4C344.1,351.7,344.3,351.8,344.6,351.8z" fill="#38475E"/></g></svg>